<?xml version="1.0" encoding="utf-8"?>
<!-- Generator: Adobe Illustrator 18.1.0, SVG Export Plug-In . SVG Version: 6.00 Build 0)  -->
<svg version="1.1" id="Layer_1" xmlns="http://www.w3.org/2000/svg" xmlns:xlink="http://www.w3.org/1999/xlink" x="0px" y="0px"
	 viewBox="0 0 293 365" style="enable-background:new 0 0 293 365;" xml:space="preserve">
<style type="text/css">
	.st0{fill:none;stroke:#87724F;stroke-miterlimit:10;}
	.st1{fill:#87724F;}
</style>
<g>
	<path class="st0" d="M284,336V29.3c-10.5,0-19-8.5-19-19c0-0.1,0-0.2,0-0.3H27.6c0,0.1,0,0.2,0,0.3c0,10.4-8.3,18.8-18.7,19V336
		c10.3,0.2,18.7,8.6,18.7,19H265C265,344.5,273.5,336,284,336z"/>
	<g>
		<path class="st1" d="M16.4,14.9c2.4,2.4,2.1,3.2,1.4,3.9s-1.5,1-3.9-1.4S9,10,9,10S14,12.4,16.4,14.9z"/>
		<g>
			<circle class="st1" cx="13" cy="20.1" r="1.7"/>
			<circle class="st1" cx="19.1" cy="14" r="1.7"/>
		</g>
	</g>
	<g>
		<path class="st1" d="M276.6,14.9c-2.4,2.4-2.1,3.2-1.4,3.9c0.7,0.7,1.5,1,3.9-1.4S284,10,284,10S279,12.4,276.6,14.9z"/>
		<g>
			<circle class="st1" cx="280" cy="20.1" r="1.7"/>
			<circle class="st1" cx="273.9" cy="14" r="1.7"/>
		</g>
	</g>
	<g>
		<path class="st1" d="M276.6,350.1c-2.4-2.4-2.1-3.2-1.4-3.9c0.7-0.7,1.5-1,3.9,1.4s4.9,7.4,4.9,7.4S279,352.6,276.6,350.1z"/>
		<g>
			<circle class="st1" cx="280" cy="344.9" r="1.7"/>
			<circle class="st1" cx="273.9" cy="351" r="1.7"/>
		</g>
	</g>
	<g>
		<path class="st1" d="M16.4,350.1c2.4-2.4,2.1-3.2,1.4-3.9c-0.7-0.7-1.5-1-3.9,1.4S9,355,9,355S14,352.6,16.4,350.1z"/>
		<g>
			<circle class="st1" cx="13" cy="344.9" r="1.7"/>
			<circle class="st1" cx="19.1" cy="351" r="1.7"/>
		</g>
	</g>
</g>
<g>
</g>
<g>
</g>
<g>
</g>
<g>
</g>
<g>
</g>
<g>
</g>
</svg>
