<?xml version="1.0" encoding="utf-8"?>
<!-- Generator: Adobe Illustrator 18.1.0, SVG Export Plug-In . SVG Version: 6.00 Build 0)  -->
<svg version="1.1" id="Layer_1" xmlns="http://www.w3.org/2000/svg" xmlns:xlink="http://www.w3.org/1999/xlink" x="0px" y="0px"
	 viewBox="0 0 256 256" style="enable-background:new 0 0 256 256;" xml:space="preserve">
<style type="text/css">
	.st0{fill:#BB9D6E;}
</style>
<g id="Your_Icon_2_">
	<path class="st0" d="M46,245.1c2.9,0.3,5.4-1.7,5.9-4.5c-0.3,3.1,2,5.7,5,6c3.1,0.3,5.8-2,6.1-5c0.3-3.3,1.1-11.6,1.4-14.6
		c0.1,0,0.2,0,0.2,0c19.9,1.6,42.3-13.2,46.7-44.6c1.9-13.6-1.6-27.1-9.8-38.1c-5.6-7.5-13-13.1-21.4-16.5c0.6-1.2,1.1-2.5,1.3-4
		c0.5-3.6-0.4-7.2-2.6-10.1c-2.2-2.9-5.4-4.8-8.9-5.3c-6.7-0.9-13.1,3.2-14.9,9.7c-0.2,0.6-0.3,1.2-0.4,1.8
		c-0.2,1.4-0.1,2.8,0.1,4.2c-1.5,0.2-2.9,0.4-4.3,0.7l-3.5-9.7c3.6-2.5,6.3-6.2,7.6-10.5c0.6-2.1,0.8-4.4,0.7-6.6l-1.6-24.6
		c-0.1-2.3-0.7-4.5-1.6-6.6L65.1,56c0.3,0.2,0.6,0.4,0.9,0.5c4.7,2.3,9.9,2.6,14.9,1l23.4-7.9c6-2.1,10.7-7,12.5-13.1
		c0,0,0-0.1,0-0.1l11.6-0.2c1.9,4.7,5.6,8.7,10.7,10.8l22.8,9.4c4.7,1.9,9.9,2,14.7,0.1l5.1,6.5c-1.1,1.6-1.9,3.4-2.5,5.4
		c-0.7,2.6-0.9,5.3-0.6,8l3.4,24.5c1,7.3,6,13.1,12.4,15.6l-0.3,8.1c-17.1,0.6-33.6,9.6-42.9,25.5c-2.9,5-5,10-6.4,14.9
		c-6.1,21.5,2,40.1,15.6,49.1c0.1,0,0.1,0.1,0.2,0.2c-1.6,2.6-6.1,9.7-7.8,12.5c-1.6,2.6-0.9,6,1.7,7.7c2.6,1.6,6,0.9,7.7-1.7l0,0
		c-0.2,0.4-0.4,0.7-0.5,1.1c-0.7,2.3,0.2,4.9,2.4,6.2c2.6,1.6,6,0.9,7.7-1.7c0.7-1.1,6.2-9.8,8.1-12.9c0.1,0,0.2,0,0.2,0.1
		c17.8,9,44.1,3.7,60.1-23.7c12-20.7,7.9-46.3-8.4-62.3c1-0.9,2-2,2.7-3.2c0.6-1,1-2,1.3-3.1c1.7-6-0.9-12.3-6.2-15.5
		c-6.5-3.8-14.8-1.5-18.6,4.9c-0.6,1-1,2-1.3,3.1c-0.1,0.3-0.1,0.5-0.2,0.8c-1.4-0.4-2.8-0.7-4.3-1l0.3-8.2
		c6.9-1.5,12.5-6.7,14.5-13.6c0.7-2.6,0.9-5.3,0.6-8l-3.4-24.4c-1.5-10.6-11.3-18.1-21.9-16.7c-1.8,0.2-3.5,0.7-5.1,1.4l-5-6.3
		c0.8-1.1,1.5-2.4,2-3.7c4.1-10.1-0.7-21.4-10.6-25.4l-22.8-9.4c-4.8-2-10.1-2-14.9,0s-8.5,5.8-10.5,10.6c-0.3,0.7-0.5,1.4-0.7,2.1
		c-0.1,0.5-0.2,0.9-0.3,1.4l-10.8,0.2c0-0.1-0.1-0.2-0.1-0.4c-1.7-4.9-5.2-8.9-9.8-11.2c-4.7-2.3-9.9-2.6-14.9-1l-23.4,7.9
		c-6,2.1-10.7,7-12.5,13.1c-1.1,3.8-1,7.8,0.3,11.6c0.3,0.9,0.7,1.8,1.1,2.6L44.7,58.4c-3.5-2.3-7.6-3.4-11.9-3.1
		c-8.2,0.5-15.2,6.2-17.5,14.1c-0.6,2.1-0.8,4.4-0.7,6.6l1.6,24.6c0.7,10.5,9.6,18.5,20.1,18.2l3.5,9.5
		c-13.6,6.1-24.4,17.9-28.6,32.9c-0.6,2.2-1.1,4.6-1.5,6.9c-4.4,31.4,13,51.8,32.6,55.8c0.1,0,0.2,0,0.2,0.1
		c-0.4,3.7-1.4,13.9-1.5,15.2C40.7,242.1,43,244.8,46,245.1z M230.5,195.8c-9.4,16.3-28.1,28.1-45.4,19.4
		c-5.3-2.7-11.6-1.2-14.4,3.4c2.6-4.7,0.8-10.9-4.2-14.2c-16.2-10.7-15.1-32.8-5.7-49c11.1-19.2,35.8-25.8,55-14.6
		C235.1,151.9,241.6,176.6,230.5,195.8z M220.6,127.8c0.7-1.2,2.2-1.6,3.3-0.9c1,0.6,1.4,1.7,1.1,2.8c-0.1,0.2-0.1,0.4-0.2,0.6
		c-0.7,1.2-2.2,1.6-3.3,0.9c0,0,0,0,0,0c0,0,0,0,0,0C220.3,130.5,219.9,128.9,220.6,127.8z M206.1,72.4l3.4,24.4
		c0.2,1.2,0.1,2.3-0.2,3.4c-0.5,1.9-1.8,3.5-3.4,4.6l0.3-7.9c0.1-3.1-2.3-5.7-5.4-5.8c-2.6-0.1-4.9,1.6-5.5,4
		c-0.1,0.4-0.2,0.9-0.2,1.3l-0.2,6.6c-0.9-1.1-1.6-2.5-1.8-4.1l-3.4-24.4c-0.1-0.6-0.1-1.2-0.1-1.7l3.8,4.9c1.9,2.4,5.4,2.8,7.8,0.9
		c2.4-1.9,2.8-5.4,0.9-7.8l-4.5-5.7C201.9,65.1,205.5,68.1,206.1,72.4z M143.2,21.2c2.1-0.9,4.3-0.9,6.4,0l22.8,9.4
		c3.6,1.5,5.6,5.2,5,9l-2.7-3.4c-1.9-2.4-5.4-2.8-7.8-0.9c-1,0.8-1.6,1.8-1.9,2.8c-0.5,1.7-0.2,3.5,1,5l2.8,3.5
		c-0.9,0-1.9-0.2-2.7-0.6l-22.8-9.4c-0.5-0.2-1-0.5-1.4-0.7l4.2-0.1c3.1-0.1,5.5-2.6,5.5-5.7c-0.1-3.1-2.6-5.5-5.7-5.5l-6.6,0.1
		C140.1,23.1,141.5,21.9,143.2,21.2z M71.9,31.1l23.4-7.9c2.1-0.7,4.4-0.6,6.4,0.4c0.9,0.5,1.7,1.1,2.4,1.8l-4.4,0.1
		c-2.5,0.1-4.6,1.7-5.3,4c-0.1,0.5-0.2,1.1-0.2,1.6c0.1,3.1,2.6,5.5,5.7,5.5l4.3-0.1c-0.9,1.1-2.1,1.9-3.5,2.4l-23.4,7.9
		c-0.5,0.2-1.1,0.3-1.6,0.4l4-3.3c2.4-2,2.7-5.5,0.8-7.8c-2-2.4-5.5-2.7-7.8-0.8l-6.2,5.1C65.8,36.5,68.2,32.4,71.9,31.1z
		 M27.4,99.8l-1.6-24.6c-0.3-4.5,3.3-8.6,7.8-8.9c0.5,0,0.9,0,1.4,0l-3.7,3.1c-0.9,0.7-1.5,1.7-1.8,2.8c-0.5,1.7-0.2,3.6,1.1,5.1
		c2,2.4,5.5,2.7,7.8,0.8l4.2-3.4L44,98.7c0.1,1,0,1.9-0.3,2.8c-0.2,0.8-0.6,1.5-1,2.2l-2-5.4c-1.1-2.9-4.3-4.4-7.2-3.3
		c-1.7,0.6-3,2.1-3.4,3.7c-0.3,1.1-0.3,2.3,0.1,3.4l1.6,4.5C29.4,105.4,27.6,102.9,27.4,99.8z M66.1,123.3c-0.2-0.3-0.6-0.9-0.5-1.8
		c0.2-1.3,1.4-2.2,2.7-2.1c0.9,0.1,1.4,0.6,1.6,0.9c0.2,0.3,0.6,0.9,0.5,1.8c0,0.1,0,0.2-0.1,0.3c-0.3,1.1-1.5,1.9-2.7,1.7l0,0
		c0,0,0,0,0,0C66.9,124.2,66.4,123.6,66.1,123.3z M20.7,169.6c3.1-22,23.5-37.3,45.5-34.2c10.6,1.5,20.1,7.1,26.5,15.7
		c6.5,8.6,9.2,19.2,7.7,29.8c-3.5,24.6-20.1,36.2-34.8,35c-5.9-0.5-11.1,3.2-12,8.5c0.6-5.3-3.4-10.3-9.2-11.5
		C25.4,209,18.1,188.2,20.7,169.6z"/>
</g>
<g>
</g>
<g>
</g>
<g>
</g>
<g>
</g>
<g>
</g>
<g>
</g>
</svg>
