<svg xmlns="http://www.w3.org/2000/svg" viewBox="0 0 256 256" enable-background="new 0 0 256 256"><style type="text/css">.st0{fill:#BB9D6E;}</style><path class="st0" d="M46 245.1c2.9.3 5.4-1.7 5.9-4.5-.3 3.1 2 5.7 5 6 3.1.3 5.8-2 6.1-5 .3-3.3 1.1-11.6 1.4-14.6h.2c19.9 1.6 42.3-13.2 46.7-44.6 1.9-13.6-1.6-27.1-9.8-38.1-5.6-7.5-13-13.1-21.4-16.5.6-1.2 1.1-2.5 1.3-4 .5-3.6-.4-7.2-2.6-10.1-2.2-2.9-5.4-4.8-8.9-5.3-6.7-.9-13.1 3.2-14.9 9.7-.2.6-.3 1.2-.4 1.8-.2 1.4-.1 2.8.1 4.2-1.5.2-2.9.4-4.3.7l-3.5-9.7c3.6-2.5 6.3-6.2 7.6-10.5.6-2.1.8-4.4.7-6.6l-1.6-24.6c-.1-2.3-.7-4.5-1.6-6.6l13.1-10.8c.3.2.6.4.9.5 4.7 2.3 9.9 2.6 14.9 1l23.4-7.9c6-2.1 10.7-7 12.5-13.1v-.1l11.6-.2c1.9 4.7 5.6 8.7 10.7 10.8l22.8 9.4c4.7 1.9 9.9 2 14.7.1l5.1 6.5c-1.1 1.6-1.9 3.4-2.5 5.4-.7 2.6-.9 5.3-.6 8l3.4 24.5c1 7.3 6 13.1 12.4 15.6l-.3 8.1c-17.1.6-33.6 9.6-42.9 25.5-2.9 5-5 10-6.4 14.9-6.1 21.5 2 40.1 15.6 49.1.1 0 .1.1.2.2-1.6 2.6-6.1 9.7-7.8 12.5-1.6 2.6-.9 6 1.7 7.7 2.6 1.6 6 .9 7.7-1.7-.2.4-.4.7-.5 1.1-.7 2.3.2 4.9 2.4 6.2 2.6 1.6 6 .9 7.7-1.7.7-1.1 6.2-9.8 8.1-12.9.1 0 .2 0 .2.1 17.8 9 44.1 3.7 60.1-23.7 12-20.7 7.9-46.3-8.4-62.3 1-.9 2-2 2.7-3.2.6-1 1-2 1.3-3.1 1.7-6-.9-12.3-6.2-15.5-6.5-3.8-14.8-1.5-18.6 4.9-.6 1-1 2-1.3 3.1l-.2.8c-1.4-.4-2.8-.7-4.3-1l.3-8.2c6.9-1.5 12.5-6.7 14.5-13.6.7-2.6.9-5.3.6-8l-3.4-24.4c-1.5-10.6-11.3-18.1-21.9-16.7-1.8.2-3.5.7-5.1 1.4l-5-6.3c.8-1.1 1.5-2.4 2-3.7 4.1-10.1-.7-21.4-10.6-25.4l-22.8-9.4c-4.8-2-10.1-2-14.9 0s-8.5 5.8-10.5 10.6c-.3.7-.5 1.4-.7 2.1l-.3 1.4-10.8.2c0-.1-.1-.2-.1-.4-1.7-4.9-5.2-8.9-9.8-11.2-4.7-2.3-9.9-2.6-14.9-1l-23.4 7.9c-6 2.1-10.7 7-12.5 13.1-1.1 3.8-1 7.8.3 11.6.3.9.7 1.8 1.1 2.6l-12.6 10.2c-3.5-2.3-7.6-3.4-11.9-3.1-8.2.5-15.2 6.2-17.5 14.1-.6 2.1-.8 4.4-.7 6.6l1.6 24.6c.7 10.5 9.6 18.5 20.1 18.2l3.5 9.5c-13.6 6.1-24.4 17.9-28.6 32.9-.6 2.2-1.1 4.6-1.5 6.9-4.4 31.4 13 51.8 32.6 55.8.1 0 .2 0 .2.1-.4 3.7-1.4 13.9-1.5 15.2-.3 2.9 2 5.6 5 5.9zm184.5-49.3c-9.4 16.3-28.1 28.1-45.4 19.4-5.3-2.7-11.6-1.2-14.4 3.4 2.6-4.7.8-10.9-4.2-14.2-16.2-10.7-15.1-32.8-5.7-49 11.1-19.2 35.8-25.8 55-14.6 19.3 11.1 25.8 35.8 14.7 55zm-9.9-68c.7-1.2 2.2-1.6 3.3-.9 1 .6 1.4 1.7 1.1 2.8l-.2.6c-.7 1.2-2.2 1.6-3.3.9-1.2-.7-1.6-2.3-.9-3.4zm-14.5-55.4l3.4 24.4c.2 1.2.1 2.3-.2 3.4-.5 1.9-1.8 3.5-3.4 4.6l.3-7.9c.1-3.1-2.3-5.7-5.4-5.8-2.6-.1-4.9 1.6-5.5 4-.1.4-.2.9-.2 1.3l-.2 6.6c-.9-1.1-1.6-2.5-1.8-4.1l-3.4-24.4c-.1-.6-.1-1.2-.1-1.7l3.8 4.9c1.9 2.4 5.4 2.8 7.8.9 2.4-1.9 2.8-5.4.9-7.8l-4.5-5.7c4.3 0 7.9 3 8.5 7.3zm-62.9-51.2c2.1-.9 4.3-.9 6.4 0l22.8 9.4c3.6 1.5 5.6 5.2 5 9l-2.7-3.4c-1.9-2.4-5.4-2.8-7.8-.9-1 .8-1.6 1.8-1.9 2.8-.5 1.7-.2 3.5 1 5l2.8 3.5c-.9 0-1.9-.2-2.7-.6l-22.8-9.4c-.5-.2-1-.5-1.4-.7l4.2-.1c3.1-.1 5.5-2.6 5.5-5.7-.1-3.1-2.6-5.5-5.7-5.5l-6.6.1c.8-1.6 2.2-2.8 3.9-3.5zm-71.3 9.9l23.4-7.9c2.1-.7 4.4-.6 6.4.4.9.5 1.7 1.1 2.4 1.8l-4.4.1c-2.5.1-4.6 1.7-5.3 4-.1.5-.2 1.1-.2 1.6.1 3.1 2.6 5.5 5.7 5.5l4.3-.1c-.9 1.1-2.1 1.9-3.5 2.4l-23.4 7.9c-.5.2-1.1.3-1.6.4l4-3.3c2.4-2 2.7-5.5.8-7.8-2-2.4-5.5-2.7-7.8-.8l-6.2 5.1c-.7-3.9 1.7-8 5.4-9.3zm-44.5 68.7l-1.6-24.6c-.3-4.5 3.3-8.6 7.8-8.9h1.4l-3.7 3.1c-.9.7-1.5 1.7-1.8 2.8-.5 1.7-.2 3.6 1.1 5.1 2 2.4 5.5 2.7 7.8.8l4.2-3.4 1.4 24c.1 1 0 1.9-.3 2.8-.2.8-.6 1.5-1 2.2l-2-5.4c-1.1-2.9-4.3-4.4-7.2-3.3-1.7.6-3 2.1-3.4 3.7-.3 1.1-.3 2.3.1 3.4l1.6 4.5c-2.4-1.2-4.2-3.7-4.4-6.8zm38.7 23.5c-.2-.3-.6-.9-.5-1.8.2-1.3 1.4-2.2 2.7-2.1.9.1 1.4.6 1.6.9.2.3.6.9.5 1.8 0 .1 0 .2-.1.3-.3 1.1-1.5 1.9-2.7 1.7-.7.1-1.2-.5-1.5-.8zm-45.4 46.3c3.1-22 23.5-37.3 45.5-34.2 10.6 1.5 20.1 7.1 26.5 15.7 6.5 8.6 9.2 19.2 7.7 29.8-3.5 24.6-20.1 36.2-34.8 35-5.9-.5-11.1 3.2-12 8.5.6-5.3-3.4-10.3-9.2-11.5-19-3.9-26.3-24.7-23.7-43.3z" id="Your_Icon_2_"/></svg>