<?xml version="1.0" encoding="utf-8"?>
<!-- Generator: Adobe Illustrator 18.1.0, SVG Export Plug-In . SVG Version: 6.00 Build 0)  -->
<svg version="1.1" id="Layer_1" xmlns="http://www.w3.org/2000/svg" xmlns:xlink="http://www.w3.org/1999/xlink" x="0px" y="0px"
	 viewBox="0 0 256 256" style="enable-background:new 0 0 256 256;" xml:space="preserve">
<style type="text/css">
	.st0{fill:#BB9D6E;}
</style>
<g>
	<path class="st0" d="M190.6,138.9C190.7,138.9,190.7,138.9,190.6,138.9c11.7-3.5,23.8-8.3,35.4-14.6c18.6-10.8,28.2,0.4,21.3,17.4
		c-5.9,16.1-37.2,46.1-64.6,52.9c-10.5-7.4-31-12.4-54.7-12.5c-23.7,0.1-44.3,5.1-54.7,12.5c-27.3-6.8-58.7-36.8-64.6-53
		c-6.9-17,2.6-28.3,21.3-17.4c11.7,6.4,23.7,11.1,35.4,14.6c25,7.5,48,9.4,60,9.4l6.6,0C143.9,148.2,166.3,146.2,190.6,138.9z"/>
	<g id="XMLID_1_">
		<path class="st0" d="M156.9,63.1c9.7,4.9,25.6,50.7,31.8,69.5c-23.5,6.8-45,8.7-56.7,8.8l-6.6,0c-11.7,0-33.7-1.8-58-8.8
			c6.1-18.8,22-64.7,31.8-69.5c11.2-5.6,20.8,3.7,28.5,4.6h-1.5c0.6,0.1,1.2,0.1,1.9,0c0.6,0.1,1.3,0,1.9,0h-1.5
			C136.1,66.8,145.7,57.5,156.9,63.1z M153.1,98.7c0-2-1.6-3.7-3.7-3.7c-1.9,0-3.4,1.4-3.7,3.2l-11.3-1.7l-5-10.1
			c1.3-0.5,2.3-1.9,2.3-3.4c0-2-1.7-3.7-3.7-3.7s-3.7,1.7-3.7,3.7c0,1.6,1,2.9,2.3,3.4l-5,10.1l-11.4,1.7c-0.2-1.8-1.8-3.2-3.6-3.2
			c-2,0-3.7,1.7-3.7,3.7c0,2,1.7,3.7,3.7,3.7c1.2,0,2.4-0.6,3-1.6l8.1,7.9l-2,11.8c-0.5-0.2-0.9-0.3-1.5-0.3c-2,0-3.7,1.7-3.7,3.7
			s1.6,3.7,3.7,3.7c2,0,3.7-1.7,3.7-3.7c0-0.8-0.2-1.5-0.6-2.1l10.8-5.7l10.7,5.6c-0.4,0.6-0.6,1.3-0.6,2.1c0,2,1.7,3.7,3.7,3.7
			c2,0,3.7-1.7,3.7-3.7c0-2-1.7-3.7-3.7-3.7c-0.5,0-1,0.1-1.4,0.3l-2-11.8l8.1-7.9c0.7,0.9,1.8,1.6,3,1.6
			C151.4,102.4,153.1,100.7,153.1,98.7z"/>
	</g>
</g>
<g>
</g>
<g>
</g>
<g>
</g>
<g>
</g>
<g>
</g>
<g>
</g>
</svg>
