<svg xmlns="http://www.w3.org/2000/svg" viewBox="0 0 256 181.5" enable-background="new 0 0 256 181.5"><style type="text/css">.st0{fill:#BB9D6E;}</style><path class="st0" d="M190.6 101.6c11.7-3.5 23.8-8.3 35.4-14.6 18.6-10.8 28.2.4 21.3 17.4-5.9 16.1-37.2 46.1-64.6 52.9-10.5-7.4-31-12.4-54.7-12.5-23.7.1-44.3 5.1-54.7 12.5-27.3-6.8-58.7-36.8-64.6-53-6.9-16.9 2.6-28.1 21.3-17.3 11.7 6.4 23.7 11.1 35.4 14.6 25 7.5 48 9.4 60 9.4h6.6c11.9-.1 34.3-2.1 58.6-9.4z"/><path class="st0" d="M156.9 25.8c9.7 4.9 25.6 50.7 31.8 69.5-23.5 6.8-45 8.7-56.7 8.8h-6.6c-11.7 0-33.7-1.8-58-8.8 6.1-18.8 22-64.7 31.8-69.5 11.2-5.6 20.8 3.7 28.5 4.6h-1.5c.6.1 1.2.1 1.9 0 .6.1 1.3 0 1.9 0h-1.5c7.6-.9 17.2-10.2 28.4-4.6zm-3.8 35.6c0-2-1.6-3.7-3.7-3.7-1.9 0-3.4 1.4-3.7 3.2l-11.3-1.7-5-10.1c1.3-.5 2.3-1.9 2.3-3.4 0-2-1.7-3.7-3.7-3.7s-3.7 1.7-3.7 3.7c0 1.6 1 2.9 2.3 3.4l-5 10.1-11.4 1.7c-.2-1.8-1.8-3.2-3.6-3.2-2 0-3.7 1.7-3.7 3.7s1.7 3.7 3.7 3.7c1.2 0 2.4-.6 3-1.6l8.1 7.9-2 11.8c-.5-.2-.9-.3-1.5-.3-2 0-3.7 1.7-3.7 3.7s1.6 3.7 3.7 3.7c2 0 3.7-1.7 3.7-3.7 0-.8-.2-1.5-.6-2.1l10.8-5.7 10.7 5.6c-.4.6-.6 1.3-.6 2.1 0 2 1.7 3.7 3.7 3.7s3.7-1.7 3.7-3.7-1.7-3.7-3.7-3.7c-.5 0-1 .1-1.4.3l-2-11.8 8.1-7.9c.7.9 1.8 1.6 3 1.6 1.8.1 3.5-1.6 3.5-3.6z" id="XMLID_1_"/></svg>