<?xml version="1.0" encoding="utf-8"?>
<!-- Generator: Adobe Illustrator 18.1.0, SVG Export Plug-In . SVG Version: 6.00 Build 0)  -->
<svg version="1.1" id="Layer_1" xmlns="http://www.w3.org/2000/svg" xmlns:xlink="http://www.w3.org/1999/xlink" x="0px" y="0px"
	 viewBox="0 0 256 256" style="enable-background:new 0 0 256 256;" xml:space="preserve">
<style type="text/css">
	.st0{fill:#87724F;}
</style>
<g id="Your_Icon">
	<path class="st0" d="M227,175.8c-1.7,0-3.3,0.6-4.7,1.4L193,128l29.3-49.3c1.4,0.8,2.9,1.4,4.7,1.4c5.1,0,9.3-4.2,9.3-9.3
		c0-5.1-4.2-9.3-9.3-9.3c-5.1,0-9.3,4.2-9.3,9.3c0,0,0,0.1,0,0.1l-57.2,0.7l-28-50c2.8-1.6,4.8-4.5,4.8-8c0-5.1-4.2-9.3-9.3-9.3
		c-5.1,0-9.3,4.2-9.3,9.3c0,3.5,2,6.4,4.8,8l-28,50L38.3,71c0,0,0-0.1,0-0.1c0-5.1-4.2-9.3-9.3-9.3c-5.1,0-9.3,4.2-9.3,9.3
		c0,5.1,4.2,9.3,9.3,9.3c1.7,0,3.3-0.6,4.7-1.4L63,128l-29.3,49.3c-1.4-0.8-2.9-1.4-4.7-1.4c-5.1,0-9.3,4.2-9.3,9.3
		c0,5.1,4.2,9.3,9.3,9.3c5.1,0,9.3-4.2,9.3-9.3c0,0,0-0.1,0-0.1l57.2-0.7l28,50c-2.8,1.6-4.8,4.5-4.8,8c0,5.1,4.2,9.3,9.3,9.3
		c5.1,0,9.3-4.2,9.3-9.3c0-3.5-2-6.4-4.8-8l28-50l57.2,0.7c0,0,0,0.1,0,0.1c0,5.1,4.2,9.3,9.3,9.3c5.1,0,9.3-4.2,9.3-9.3
		C236.3,180,232.1,175.8,227,175.8z"/>
</g>
<g>
</g>
<g>
</g>
<g>
</g>
<g>
</g>
<g>
</g>
<g>
</g>
</svg>
